/* XPM */
static char *_e1e5a82f6094639917a5990c57db1f51CKPzlJHrUGmgGmc[] = {
/* columns rows colors chars-per-pixel */
"32 42 145 2 ",
"   c black",
".  c #11161A",
"X  c #2E1D1C",
"o  c #352119",
"O  c #1C242B",
"+  c gray20",
"@  c #393939",
"#  c #472C22",
"$  c #5E3C2D",
"%  c #336620",
"&  c #3E712B",
"*  c #414141",
"=  c #695C5C",
"-  c #656565",
";  c #8B5655",
":  c #9B7574",
">  c #B97371",
",  c #478332",
"<  c #4C8435",
"1  c #5CB73A",
"2  c #598840",
"3  c #64B746",
"4  c #6FC949",
"5  c #6DDB46",
"6  c #C2FF00",
"7  c #85F45D",
"8  c #A7FF78",
"9  c #2F8AB5",
"0  c #8B8B8B",
"q  c #AC96AC",
"w  c #AD9AAD",
"e  c #B49BA6",
"r  c #BB9DA6",
"t  c #B297AD",
"y  c #B49BAC",
"u  c #BB9DAB",
"i  c #B39DB0",
"p  c #B1A0AE",
"a  c #BDA1AD",
"s  c #BBA3B2",
"d  c gray75",
"f  c #C58987",
"g  c #CA9391",
"h  c #CF9C9B",
"j  c #C09FAD",
"k  c #C3A3AC",
"l  c #C8A7AE",
"z  c #C7A8AC",
"x  c #CBABAD",
"c  c #CDB1AE",
"v  c #CCA7B1",
"b  c #C3ABB5",
"n  c #CCACB3",
"m  c #C5ADBA",
"M  c #CEB3B4",
"N  c #CFBBB7",
"B  c #C5B2BD",
"V  c #CBB5BC",
"C  c #CDB9BC",
"Z  c #D0B5B3",
"A  c #D3BAB5",
"S  c #D1B7B9",
"D  c #D3BABA",
"F  c #BDFF9A",
"G  c #DECEA6",
"H  c #DDCDAA",
"J  c #CFCEBF",
"K  c #D3C5B2",
"L  c #DCCBB2",
"P  c #D3C3BC",
"I  c #DAC7BC",
"U  c #DBC9BC",
"Y  c #D7D1B4",
"T  c #DED3B5",
"R  c #D7D2B8",
"E  c #DBD3BA",
"W  c #E1CEA6",
"Q  c #E0CCAA",
"!  c #E2D0AC",
"~  c #E0CEB0",
"^  c #E0CFB8",
"/  c #E2D3B3",
"(  c #E5DCB5",
")  c #E1D1BB",
"_  c #E3DDBD",
"`  c #E7E1B6",
"'  c #E7E1BE",
"]  c #C7B3C0",
"[  c #CCB7C2",
"{  c #CEBAC3",
"}  c #D2B9C2",
"|  c #D1BEC2",
" . c #D1BEC5",
".. c #C5C5C5",
"X. c #CAC6C4",
"o. c #C6C8C7",
"O. c #CBC9C5",
"+. c #C4C6CA",
"@. c #CFC7C8",
"#. c #C5C8CB",
"$. c #CCCACA",
"%. c #D2C2C2",
"&. c #D3C3C2",
"*. c #D6C5C1",
"=. c #D5C3C5",
"-. c #D9C3C3",
";. c #D9C6C2",
":. c #DAC6C6",
">. c #D5CAC6",
",. c #DDC9C3",
"<. c #DEC9C2",
"1. c #DBCCC2",
"2. c #DFCDC5",
"3. c #D5C4C8",
"4. c #D8C5C9",
"5. c #D3CDCA",
"6. c #DBCECB",
"7. c #D7D1C2",
"8. c #DED2C3",
"9. c #DFD8C6",
"0. c #D5D1CB",
"q. c #DBD4CC",
"w. c #DED9CC",
"e. c #C7CBD1",
"r. c #CBCDD1",
"t. c #CFD1D0",
"y. c #D4D4D3",
"u. c #DDD2D0",
"i. c #DDDDD3",
"p. c #E3C6C5",
"a. c #E0CCC4",
"s. c #E2CFCA",
"d. c #E2D5C4",
"f. c #E3DAC6",
"g. c #E3D2CE",
"h. c #E1D5CD",
"j. c #E2DCCC",
"k. c #E2D5D1",
"l. c #E4DFD1",
"z. c #DAF6D1",
"x. c #E5E1CB",
"c. c #E8E3CD",
"v. c #E4E1D1",
"b. c #E0FCD6",
"n. c white",
/* pixels */
"S S D I A D D A M N M M V S -.6.k.k.s.s.g.2.<.;.P D C [ V [  .4.",
"S S D D D D A D S S M M M D -.    s.s.a.a.a.U *.D C V V V C | 3.",
"} D A A A D D A M M M M M }         <.<.2.2.<.*.P C V C [ C | =.",
"} S A A A A D S M M M c M     7 7   ,.<.,.<.,.:.{ C C [ } [  .=.",
"} D A A A A S S M n M M V   7 8 8 7   ^ <.<.<.*.@. .{ { [ } &.3.",
"} D A A A A S A M M M M S     8 8   U <.<.<.*.=. .@. .{ [ [ } 4.",
"} D A A A A S   S M M         7 8         <.*.&.   . . .{ [ } &.",
"S D A A A A     *             5 8           *       {  .{ { {  .",
"S S Z S A     7       7 8 8 8 8 8 8 8 8 7       7     { [ [ { &.",
"n M Z Z Z     8 3 7 8 8 8 7 n.n.n.n.8 8 8 8 3 7 8     ] ] [ { =.",
"n Z n Z     8 7 4 n.n.n.7 n.n.    n.8 7 n.n.b.1 7 8   ] B [ | =.",
"n n Z Z     7   F n.  n.n.7 n.n.n.n.7 n.n.  n.7   7   m B V | :.",
"n M M Z Z     7 F     n.n.8 8 8 8 8 7 n.    n.7 5     B B V C :.",
"n M c c c     8 7 n.n.n.7 7 7 7 7 7 7 7 n.n.z.7 7     B B V P :.",
"v n M c c     & < 2 2 2 2 2 2 2 2 2 2 2 2 2 2 , %     B B C C >.",
"v n n x     5 7 8 8 8 8 8 8 8 8 8 8 8 8 8 8 8 8 7 5   B K P P P ",
"v v n x                                               K L L P P ",
"l x c x     # $ k # p.p.$ $ # p.# $ # p.# p.$ p.$ #   H H L U *.",
"j x v z     # $ : $     h $ p.p.$ p.p.h     o h $ #   G G L U *.",
"j l z z     $ # * n.      p.p.p.p.p.p.  n.n.    # $   W G H U <.",
"j l l k     $ #                     p.          # $   W H L U <.",
"k k l z     $ #             n.y.n.y.p.          # $   ! ~ U 1.1.",
"k l k k     $ # :       h           p.h       h # $   / L 2.>.1.",
"k k k k     $ # g p.p.p.p.p.= = = = p.p.p.p.p.f # $   ) 8.6.6.7.",
"u k k k     $ # X h p.p.p.p.p.p.p.p.p.p.p.p.g   # $   2.8.6.6.6.",
"u j k k     # $   > h p.p.p.p.p.p.p.p.p.p.h ;   $ #   >.u.u.h.h.",
"u k j k k     #       > h p.p.p.p.p.p.h >       #     >.5.u.k.j.",
"r r j j j a     *         h h h h h >       *       X.>.5.u.k.l.",
"r u j j j j u u u     $..             . $.  * X.P X.X.$.5.5.u.v.",
"r u u j u u u u d   h n.O 6 9 ..9 $.. O n.h   X...X.@.3.3.5.u.v.",
"j r j u u u u r d   h p.  6 d 9 ..9 O   p.h   X...O.$.$.5.5.q.i.",
"r r u u u u r r d   h p.  n.6 6 6 6 n.  p.h   ..X.X.$.$.5.5.q.w.",
"r r r j u t u u u -       * @     + *       0 X...o.$.$.5.5.q.w.",
"r r r u u u e e u u b     n.$.    $.      ....X.X.O.$.$.5.0.w.j.",
"r r u u u y y y u i b M                 X...o...X...$.$.$.0.w.w.",
"u r t u u y y y i b n C P     d.d.    X.X.o.+.+.+...+.$.O.t.w.x.",
"e u y y y y u y i b B N P 2.d.f.j.q.5.@...+...+.+.+...O.5.7.w.x.",
"r e y t i i p y s m M N U d.f.f.w.i.5.$.+.+.d ..+.o.O.O.7.9._ ' ",
"e e t t t t i i s m V P <.f.x.x.l.i.y.$.....+...o.o.J R E ( ` ` ",
"e e y t t q i y u m V &.2.j.c.v.v.v.y.r.+.+.+.o.O.R Y T ( ( ( ` ",
"e y y w q q w p s m V =.8.f.x.c.v.i.t.r.e.+.#.o.J R T T ( ( ` E ",
"e y w q q q w p s m V &.8.f.x.x.x.i.t.e.#.+.#.#.J R T T T T E 9."
};
