/* XPM */
static char *result[] = {
/* columns rows colors chars-per-pixel */
"32 32 14 1 ",
"  c black",
". c gray10",
"X c #002441",
"o c #004170",
"O c #EBD61C",
"+ c #FFAC56",
"@ c #006BB0",
"# c #0085E1",
"$ c #868686",
"% c gray71",
"& c #FFC281",
"* c #D8BFC2",
"= c gray86",
"- c white",
/* pixels */
"*******      ******      *******",
"*******      ******      *******",
"*****  ------  **  ------  *****",
"*****  ------  **  ------  *****",
"*      ==..--==  ==--..==      *",
"*      ==..--==  ==--..==      *",
"*  ####XX======%%======XX####  *",
"*  ####XX======%%======XX####  *",
"*  ----%%%%%%==..==%%%%%%----  *",
"*  ----%%%%%%==..==%%%%%%----  *",
"*  ----------..%%..----------  *",
"*  ----------..%%..----------  *",
"*  ##########----%%..########  *",
"*  OOO#O###O#----%%OOO#OOOOOO  *",
"*  O@@OO@@O@O======OX.OO@@O@@  *",
"*  OOO@O@@OOO======OX.OOO@OO@  *",
"*  O@@OO@@O@O======O@.OO@@O@@  *",
"*  OOO@OOOO@O======OOO.OOOOOO  *",
"*    XXXXXXXX$$$$$$XX..XXXX    *",
"*    XXXXXXXX$$$$$$XX..XXXX    *",
"***  oooooooo%%%%%%XX..XXoo  ***",
"***  oooooooo%%%%%%XX..XXoo  ***",
"***  oooooooo%%%%%%XX++&&oo  ***",
"***  oooooooo%%%%%%XX++&&oo  ***",
"***  oooooooo%%%%%%XX&&&&oo  ***",
"***  oooooooo%%%%%%XX&&&&oo  ***",
"***  oooooooo%%%%%%XX++++oo  ***",
"***  oooooooo%%%%%%XX++++oo  ***",
"***  oooooooo%%%%%%ooXXXXoo  ***",
"***  oooooooo%%%%%%ooXXXXoo  ***",
"***                          ***",
"***                          ***"
};
