/* XPM */
static char *result[] = {
/* columns rows colors chars-per-pixel */
"32 32 90 1 ",
"  c #BB9DA5",
". c #B79EAB",
"X c #BC9DAB",
"o c #BDA1AD",
"O c #BFA8B0",
"+ c #CDB19D",
"@ c #D6B696",
"# c #DAB695",
"$ c #DBBB95",
"% c #D2B59C",
"& c #D9B99D",
"* c #C09FAD",
"= c #C5A7A7",
"- c #C6AAA5",
"; c #C9ADA4",
": c #C3A4AC",
"> c #C8A7AE",
", c #C6AAAD",
"< c #CAACAD",
"1 c #CDB1A7",
"2 c #C7B1AF",
"3 c #CDB2AE",
"4 c #D2B3A6",
"5 c #D6BBA6",
"6 c #D1B5A9",
"7 c #D3BEAE",
"8 c #C5A6B2",
"9 c #CCA7B1",
"0 c #C6A9B2",
"q c #CBADB3",
"w c #C4AFBD",
"e c #CCAEB8",
"r c #CEB2B4",
"t c #CDBAB3",
"y c #C5B2BD",
"u c #CCB5BC",
"i c #CCBABD",
"p c #D1B5B4",
"a c #D3BBB5",
"s c #D1B7BA",
"d c #D3BBBB",
"f c #DECEA6",
"g c #DDCBAC",
"h c #CDC2BD",
"j c #D5C5B4",
"k c #DAC5B4",
"l c #D6C9B5",
"z c #DDCBB4",
"x c #D3C5BB",
"c c #DAC6BB",
"v c #D4C8BB",
"b c #DCC9BB",
"n c #E2CDAB",
"m c #E7D0A4",
"M c #E8D1A0",
"N c #E2D0AE",
"B c #E1CDB2",
"V c #E0CEB9",
"C c #E3D1B3",
"Z c #E1D1BB",
"A c #C7B4C1",
"S c #CBB7C1",
"D c #CDBAC3",
"F c #D0B7C0",
"G c #D2BDC2",
"H c #D8BFC1",
"J c #C7C3C1",
"K c #CBC4C2",
"L c #CEC8C6",
"P c #CFC7C8",
"I c #CDC9C9",
"U c #D3C4C3",
"Y c #D9C4C2",
"T c #D5C9C5",
"R c #DDCAC3",
"E c #D5C4C8",
"W c #D8C5C9",
"Q c #D3CDCB",
"! c #DCCDCB",
"~ c #DED1C6",
"^ c #DAD3CD",
"/ c #DED9CB",
"( c #DDD2D0",
") c #E0CCC4",
"_ c #E1CECA",
"` c #E2D3CD",
"' c #E3DBCF",
"] c #E2D5D1",
"[ c #E5DFD2",
"{ c #E6E0D3",
/* pixels */
"psddaaHatsrrudY_]]__`)RYdiSiudDW",
"ssaddHaasrrrrdH!___)))RcxiuuuSKW",
"GdadaassrprrrGHR))Y)RRRYdiruSuGE",
"Gsaaaadsrr3rrFHWHY)YRRRYUiSSSGGE",
"HsaaaassrrrrsFHHHY)c))YYEDDDFFGW",
"HsHsassppqrrsGHHHccV)YYUEWDDSDFW",
"FsaaaaspsrqrdGHHYYcYYcYUEPDGSDGE",
"ssaaaspprrrssdHHHVV)RRYUDDDDDDDG",
"eeppapprrrrrssFddVVV)TYUDDSSSSDE",
"epppppsqrrurssddkBnBVbiDSSAAAAGU",
"qp6p6prrrreeeddaknmmncUuAAyyySDY",
"qqppppqqqqerrsddknMMnbxyyyywyuGT",
"9pp6pqqrqqeeeusdkBmmnbduyAOyyuiT",
"qqqp6qqq0q0eeqpsakknzcxiyAAAyuUY",
"9pq6q<rq,,0q0qsaHkkkcxhDyOyyyidY",
"99q<<qq<,q008qraakccvUiJAAyitjhU",
"999<<q>,>,080qraakdVvUKDiytjllcv",
">9<<<,:,-,800qp7akccvYEGDhjffzcY",
"=>>>--:---<,0qraajccvUUEUxgfmgvR",
"*>>,,,:-1%%6<rpaaakcvvUETlgffzlY",
"*>>=>::-@$$&46pajkkcvUKETzgfgzbT",
"*>9=,=:=+@$$&6pakjjxxhvUTzNNzzbT",
"*8::,:8:;+@@#577kkkxjhhKTzCCZb~T",
"*:::=o:o:-;%555jcjcvhhihKvCZ~!!~",
"**:*=X*ooo:-13jjjjjxhhhihcbZ^!!^",
"*::== XX.o8,237kkjxxhhKKKhLT!(/`",
" ***:*XX.ooOr3jkgjxxxhhKKhJTQ(]'",
"  ****XXoooO,37kjjxvvhhKKhJTQ!][",
"  X**XX .oOOO1jlgjhvUhJLJJLLQQ({",
" X**XXXX.oOO21jjjhhhUJKKLLLIQQ^[",
"  XXXXXXo.OO2jjjjlhhKJJJJLIIQQ^/",
"  XXXX. oOOO22jllvvhJJJJIJIIQQ^/"
};
