/* XPM */
static char *result[] = {
/* columns rows colors chars-per-pixel */
"32 32 86 1 ",
"  c black",
". c #E75F00",
"X c #F79100",
"o c #FFD300",
"O c #BB9DA5",
"+ c #B79EAB",
"@ c #BC9DAB",
"# c #BDA1AD",
"$ c #BFA6B0",
"% c #BFA8B0",
"& c #CDB19D",
"* c #D6B696",
"= c #DAB695",
"- c #DABB94",
"; c #D2B59C",
": c #DAB99B",
"> c #C09FAD",
", c #C5A7A7",
"< c #C6AAA5",
"1 c #C9ADA4",
"2 c #C3A4AC",
"3 c #C8A7AE",
"4 c #C6AAAD",
"5 c #CAABAC",
"6 c #C7B2AF",
"7 c #CDB1AE",
"8 c #C6A7B3",
"9 c #CCA7B1",
"0 c #C6AAB3",
"q c #CBADB3",
"w c #C4AFBD",
"e c #CCAEB8",
"r c #CEB2B4",
"t c #CEBEB7",
"y c #C5B2BD",
"u c #CBB5BD",
"i c #CCBABD",
"p c #D1B5B4",
"a c #D3BAB5",
"s c #D1B7B9",
"d c #D3BBBB",
"f c #DECEA6",
"g c #DCCCAB",
"h c #CDC2BD",
"j c #D4C6B3",
"k c #DCC7B5",
"l c #D6C8B7",
"z c #DDCBB4",
"x c #D3C5BB",
"c c #D9C7BB",
"v c #D5C8BB",
"b c #DBCABA",
"n c #E1CEA6",
"m c #E1CDAB",
"M c #E5D0A3",
"N c #E2D0AE",
"B c #E0CFB4",
"V c #E3D1B3",
"C c #E1D1BB",
"Z c #C7B4C1",
"A c #CBB7C1",
"S c #CDBAC3",
"D c #D0B7C0",
"F c #D1BDC2",
"G c #D8BFC2",
"H c #C7C3C1",
"J c #CBC4C2",
"K c #CEC8C6",
"L c #CFC7C8",
"P c #CDC9C9",
"I c #D3C4C3",
"U c #D9C5C4",
"Y c #D5C9C5",
"T c #DBCBC2",
"R c #D5C4C8",
"E c #D3CDCB",
"W c #DBCECB",
"Q c #DED1C6",
"! c #DAD3CD",
"~ c #DED9CB",
"^ c #DDD2D0",
"/ c #E1CDC5",
"( c #E1D5CD",
") c #E1D5D1",
"_ c #E5DFD2",
"` c #E6E0D3",
/* pixels */
"GGUGGGGGUGGGG      GGGGGGGGGGGGG",
"sdddaddasrrup      T//TxdsuuuiFR",
"Ddaaaddsprr  oooooo  /TIFiuuSiFR",
"Ddaaaassrrr  oooooo  /TUIirSDDFR",
"Gdaaaasar  ooXX  XXXX  URRSSADFR",
"Gdaaaassp  ooXX  XXXX  IRRSSASFR",
"Dsaaaapsp  oo  GG  XX  ISRSFSAFR",
"Dsaaaapeu  oo  GG  XX  ILSSSDSFF",
"esppppprr  XX..  XX..  ISSSAAASF",
"9eppppprr  XX..  XX..  SAZZZZAFR",
"qpppprrrrru  XXoo..  bIuZyyyyAFR",
"qq7pprqrqrq  XXoo..  kdiyywwyAdU",
"qqpp77rqqqeee  ..  MmkGiyywwyuiT",
"qr5ppqqq0q0eq  ..  BzcdiywyyyuFU",
"9q7777qq4q000  XX  kcvhiyywyyihU",
"9qq759q544000  XX  cvJiiyyythdxx",
"9975504444888  XX  cvIISuuijjzlI",
"3595554248008  XX  cvYIIihjgfzbY",
">3355,22<<5    XX  vvIYIIxgfnzbc",
"23343,2<&;;    XX  vvIIRIlgfngbU",
">3324,2<;--  ooXX  vvxJIYbmnmzbT",
">332422,&*-  ooXX  kxxxIYzNNmbTY",
">22,,222<;*=:  XX  xhhhJYzVVVTYQ",
"2222,#8$2<1;;  XX  vjiihhlCCTWYQ",
">>222,O@#      ..  xhhiJhxCQ!^WQ",
">>>,#O@@#      ..  vhhhJJhvYWW(~",
">>>>2>#@+  ooXXXX  lvhhJJhJIE^))",
"OO2>>>@@+  ooXXXX  IvhhJJJJKE!)_",
"OO>>>@@@+      ..  IIJhJHHJPEW^`",
"O@@>@@O@+      ..  xJHJJKKKPRE!_",
"O>@@@@@@##%46      JHHHPKKPPEE!~",
"OO>@@++O##%06      hhHHHHHPPEE!~"
};
