/* XPM */
static char *result[] = {
/* columns rows colors chars-per-pixel */
"32 32 104 2 ",
"   c #020202",
".  c gray5",
"X  c #121212",
"o  c #232323",
"O  c gray16",
"+  c #313131",
"@  c #3C3C3C",
"#  c #454545",
"$  c #494949",
"%  c #525252",
"&  c #5C5C5C",
"*  c gray39",
"=  c #6C6C6C",
"-  c #736C68",
";  c #757575",
":  c #7B7B7B",
">  c #838383",
",  c #8B8B8B",
"<  c #959595",
"1  c #9D9698",
"2  c #9A9A9A",
"3  c #BAA695",
"4  c #BB9DA5",
"5  c #B79EAB",
"6  c #BC9DAB",
"7  c gray64",
"8  c #ACACAC",
"9  c #BDA1AD",
"0  c #BEA3B0",
"q  c #BFA8B0",
"w  c #B1B1B1",
"e  c #BDBDBD",
"r  c #DCBB9A",
"t  c #C09FAD",
"y  c #C5A7A7",
"u  c #C6AAA6",
"i  c #C3A4AC",
"p  c #C8A7AE",
"a  c #C5A9AE",
"s  c #CAABAD",
"d  c #C7B1AF",
"f  c #CDB3AE",
"g  c #D6BBA6",
"h  c #D2B6A8",
"j  c #D4BEAD",
"k  c #C1A3B0",
"l  c #CCA7B1",
"z  c #C5A9B1",
"x  c #CCADB2",
"c  c #CEB2B4",
"v  c #CDBAB3",
"b  c #C6B2BD",
"n  c #CBB5BD",
"m  c #CDBABD",
"M  c #D0B5B4",
"N  c #D3BBB5",
"B  c #D1B7BA",
"V  c #D3BABB",
"C  c #DECEA6",
"Z  c #DDCCAA",
"A  c #CCC2BD",
"S  c #D4C5B4",
"D  c #DAC4B4",
"F  c #D6C9B5",
"G  c #DDCBB4",
"H  c #D3C4BC",
"J  c #DCC7BB",
"K  c #D4C8BB",
"L  c #DCCABB",
"P  c #E1CEA6",
"I  c #E1CCAB",
"U  c #E7D0A4",
"Y  c #E2D0AE",
"T  c #E1CDB2",
"R  c #E0CEB9",
"E  c #E3D1B3",
"W  c #E1D1BB",
"Q  c #C7B3C0",
"!  c #CCB7C2",
"~  c #CDBAC3",
"^  c #D0B7C0",
"/  c #D2BDC2",
"(  c #C4C2C1",
")  c #CBC4C2",
"_  c #CEC8C6",
"`  c #CDC9C9",
"'  c #D4C4C3",
"]  c #DAC4C3",
"[  c #D4CAC6",
"{  c #DCCAC3",
"}  c #D4C6CA",
"|  c #D8C5C9",
" . c #D3CDCB",
".. c #DCCDCB",
"X. c #DED1C6",
"o. c #DAD3CC",
"O. c #DED9CB",
"+. c #DDD2D0",
"@. c #E0CCC4",
"#. c #E1CECA",
"$. c #E2D3CD",
"%. c #E2D5D1",
"&. c #E5DFD2",
"*. c #E6E0D3",
/* pixels */
"M B V V N V V V c B c c m B @.#.#.%.#.#.$.@.{ { V V m n n ! / | ",
"B V V V V J N N M M c c c V / | #.#.#.#.@.@.{ H H m n n n m ~ | ",
"^ V N N N N V B M c c c c / ] #.@.@.@.] @.{ { ] V m n n ! ~ / ' ",
"/ B N N N N B B M c c c c ^ / ] / ] J @.{ { ] ] ' m n m ~ ^ / ' ",
"/ V N N N N V B B c       V / / ] ] @       ] ] } ~ ~ ~ ! / ^ | ",
"/ V V N N N M , @           % / ]             & } } ~ ~ ! ! ^ | ",
"^ V N N N N 7   + = x M /   . &     % @.@.* -   X / ~ ~ ~ ~ / ' ",
"B B N N N V   X < X c B V V       X R @.{ { ' <     ~ ~ ~ ~ / / ",
"c B c M M     %       X n V V   @ R R R { { ' )  .. 8 ! ! ! ~ / ",
"c c c M >   < c &         ; B e N T I T R J / V !     Q Q ! / ' ",
"x M M M   X c c V             N D I U U 8 8 ' m Q &   * b ! / ' ",
"x x x @   O x x <             , D I U       w n Q Q     b n / | ",
"x x c @   x c c <               D o .         , b b &   b n m | ",
"x x h @   x x x <       m       ~             ; b b *   b n H ] ",
"x x M @   x x x <       z       e     : +     ; b b *   b m m ] ",
"l x l @   O s s 2       l       e     > K     ; b b     v A H K ",
"l x s s     s a <       :       e     , K     ; n     * F G H K ",
"p l s s >     a <                     - [     1 '     Z C G H ] ",
"t p p s s o   2 <               O             =     w C P G L { ",
"i p p p u i                   , N                 K Z P P G G ] ",
"t p p i a i i @   * r $     7 N S D X   O       e L Z U Z G L [ ",
"t p p y u i i u $   < r = h h N {       o       [ G Y Y I L { { ",
"t p i i a a k a u X   3 r g j S e             : ' G E E W { [ { ",
"t i i i i i 9 i i u     * g j D S F H     A m A ) F G W X.X.[ X.",
"t i i i i 4 6 9 0 0 i $   = j S F G X   8 A A m A K L X.o...o.X.",
"t t i i y 4 t 6 6 9 k z #   2 S {     8 A A A ) ) A H [ ..+.o.$.",
"4 t t t i t 6 5 9 9 0 q x     ,     A H K ) ) ) ) A A [  .+.%.&.",
"4 4 i t t t 6 6 5 5 0 z x d o     O.K K ' A A ) ) ) ) _  ...%.&.",
"4 4 t t t t 6 6 5 6 k a d d S # 8 S A H ] ) A ) ) ( _ _  . .+.*.",
"4 6 t 6 4 6 6 6 5 5 0 z d f S F S S A A ) ( ) ) _ _ _ `  . .o.&.",
"4 4 6 6 6 6 4 4 4 9 q d d v S S S S K A ) A ( ( ( _ ` `  . .o.O.",
"4 4 6 6 6 6 6 5 4 8 q q d v S F F K H A A ( ) ` ( _ ` `  . .o.O."
};
